<svg version="1.2" xmlns="http://www.w3.org/2000/svg" viewBox="0 0 1553 268" width="1553" height="268"><defs><clipPath clipPathUnits="userSpaceOnUse" id="cp1"><path d="m1552 1v267h-1552v-267z"/></clipPath></defs><style>.a{fill:#fff}</style><g clip-path="url(#cp1)"><path class="a" d="m46 191.1c6 2.3 11.9 4.9 18 6.8 17.2 5.4 34.6 6.5 51.8-0.3 14.1-5.5 24.7-15.4 33.5-27.5 7.5-10.4 13-21.8 18.6-33.2q32.8-66.5 65.5-133.2c0.9-1.9 1.9-2.7 4.2-2.7 27.2 0.1 54.4 0 81.6 0h2.9q-0.2 1-0.6 2-47.5 97.1-95.1 194.2c-7.7 15.8-16.8 31-29 43.9-20 21.1-44.7 29.8-73.6 26-26.7-3.6-46-18.8-61-40.3-7.2-10.6-12.8-22.2-16.5-34.4q-0.2-0.7-0.3-1.3z"/><path fill-rule="evenodd" class="a" d="m944.9 131.6c2.9-14 10.8-26.4 22.2-34.9 12.4-9.4 26.6-13.9 41.7-15.7 16.3-1.9 32.4-1.5 48.1 3.4 25.6 7.9 39.8 25.5 43.6 51.7q1.1 8.4 1 16.9c0.2 18.2 0 36.5 0.1 54.7 0 8.3 4 12.3 12.3 12.6q2.3 0 4.6 0h2.3v38.1c-0.2 0.1-0.4 0.3-0.5 0.3-11.6-0.1-23.3 1.1-34.8-1.3-13.2-2.7-22.2-10.2-26.3-23.2-0.1-0.3-0.3-0.7-0.5-1.4-1.3 1.7-2.4 3.1-3.6 4.5-9.9 12.4-23 19.4-38.4 21.9-13.7 2.3-27.4 2.1-40.7-2-15.8-4.9-28.4-13.9-34.8-29.5-10-24.2-2.9-52.6 25.4-65.9 11.4-5.2 23.7-8.3 36.2-9.2 17.8-1.4 35.5-2.5 53.3-3.8 1.1-12.4-4.7-24-14.8-28.2-5.7-2.5-11.9-3.7-18.2-3.6-6.2 0.1-12.4 1.6-18 4.3-6.8 3.2-10.9 8.8-12.8 16.4zm111.6 47.9c-1 0-1.6 0-2.3 0-10.3 0.9-20.6 1.8-30.9 2.8-8.6 0.8-17.2 1.4-25.2 4.8-5.3 2.2-10.1 5.1-12.5 10.7-4.1 9.3 1.1 20.2 11.1 24.1 19.4 7.5 42.5-0.4 53.2-18.4 4.5-7.2 6.7-15.6 6.6-24z"/><path class="a" d="m816.8 129.7l-43.7 5.6c-1.7-3-2.9-6.1-4.9-8.6-4.5-5.8-10.9-8.6-18-9.7-9.8-1.5-19.6-1.6-28.7 3.4-3.2 1.6-5.7 4.4-6.9 7.9-2.1 6-0.2 11.2 5.4 14.3 7.6 4.1 16.1 5.2 24.4 6.9 13.4 2.8 27 5.4 40.3 8.7 8.5 2.2 16.2 6.6 22.4 12.8 9.4 9.2 12.8 20.7 12.2 33.5-1.1 24.5-14 41.3-36.3 50-26.3 10.3-53.1 9.9-79.3-1-16.9-7.1-28.6-19.6-33.6-37.6-0.6-2.2-0.9-4.3-1.5-6.9l44.3-5.7c0.7 1.9 1.2 3.9 2.1 5.7 3.8 7.9 10.6 12.2 18.8 14.3 9.5 2.4 19.1 2.5 28.5-0.9 4.7-1.7 8.6-4.5 10.7-9.2 3.9-8.5 1-16.2-8.3-19.6-7.3-2.7-15.1-4.2-22.7-5.9-12.8-2.9-25.7-5-38.3-8.3-10.1-2.5-19.1-8.2-25.7-16.3-8.7-10.7-10.5-23.3-8.1-36.5 3.5-19.1 15.6-31.3 32.8-38.8 15.7-6.9 32.2-8.3 49.2-7.3 10.4 0.5 20.6 2.7 30.2 6.7 18.8 7.9 30.5 21.8 34.7 42.5z"/><path class="a" d="m370.2 82.8h2.9q22.7 0 45.4 0c2.1 0 2.9 0.8 3.5 2.6q20.1 57.3 40.3 114.5c0.4 0.9 0.7 1.8 1.3 3.2 3.4-9.8 6.7-19 10-28.2q15.7-44.7 31.5-89.5c0.6-1.9 1.4-2.6 3.5-2.6 14.8 0.2 29.6 0 44.3 0h2.8c-1.3 3.4-2.5 6.5-3.6 9.6q-31.5 81.9-62.8 163.8c-0.8 2-1.6 2.7-3.8 2.7q-22.7-0.1-45.4 0c-0.8 0.1-1.6 0-2.2-0.5-0.7-0.4-1.1-1.1-1.3-1.8q-32.7-85.6-65.5-171.2c-0.3-0.8-0.5-1.5-0.9-2.6z"/><path class="a" d="m1366.7 82.8h12.7c11.8 0 23.5 0.1 35.2 0 2.4 0 3.3 0.8 4.1 3q20 57.2 40.2 114.2c0.3 0.8 0.7 1.7 1.2 3.1 14.3-40.4 28.3-80.2 42.4-120.1h49.5c-0.3 1.1-0.5 1.9-0.9 2.8q-32.7 85.3-65.4 170.6c-0.7 1.8-1.5 2.6-3.6 2.6q-22.8-0.2-45.6 0c-0.8 0.1-1.5-0.1-2.1-0.5-0.6-0.4-1.1-1.1-1.2-1.8q-32.8-85.7-65.7-171.3c-0.2-0.8-0.4-1.5-0.8-2.6z"/><path class="a" d="m1207.5 123.1v3q0 34.8 0 69.6 0.1 4.7 0.9 9.3c1.2 6.7 5.2 10.9 11.9 12q7.1 0.9 14.2 1c3.9 0.2 7.8 0 11.9 0v40.5q-0.6 0.2-1.2 0.3c-13-0.2-26 0.1-38.9-0.6-13.4-0.8-25.4-5.3-34.3-15.9-5.9-6.9-9.5-15.5-10.1-24.5-1-14.2-1-28.5-1.2-42.8-0.1-16.4 0-32.8 0-49.2 0-0.7 0-1.5-0.1-2.6h-27.9v-40.4c0.9 0 1.8 0 2.8 0 6.5-0.1 13-0.1 19.6-0.5 5.2-0.2 9.2-3 10.4-8.1q2.1-10.1 3.1-20.4c0.4-3.7 0-7.6 0-11.6h38.8v40.6h46.6v40.3z"/><path class="a" d="m168 1.3c-0.3 0.8-0.5 1.4-0.7 2q-22.4 46.4-44.9 92.7c-4.7 10-11.3 19.1-19.3 26.8-13.8 12.9-29.9 17.6-48.5 13.5-13.4-2.8-25.4-10.4-33.6-21.4-10.7-13.9-15.8-30.3-21-47.2 1.1 0.4 1.8 0.7 2.5 1 9.1 4.1 18.5 7.6 28.6 8.4 15 1.3 27.4-4.1 35.1-17.1 7-11.9 12.7-24.6 18.9-37 3.2-6.5 6.2-13.2 9.2-19.9 0.6-1.4 1.2-2.2 2.9-2.1q34.5 0.1 69 0 0.9 0.1 1.8 0.3z"/><path class="a" d="m630.9 82.9v175.7h-46.4v-175.7z"/><path class="a" d="m1337.7 83v175.7h-46.3v-175.7z"/><path class="a" d="m902 82.9v175.7h-46.4v-175.7z"/><path class="a" d="m607.7 54.6c-9.3-0.2-17.1-3.2-22.9-10.6-10.1-12.6-4.5-33.1 10.8-38.4 9.4-3.3 19-3.5 27.8 1.7 8.8 5.2 12.9 13.1 12.2 23.1-0.7 10.8-6.5 18.4-16.7 22.1-3.5 1.4-7.5 1.5-11.2 2.1z"/><path class="a" d="m1314.7 53.9c-9.2 0.4-16.8-2.4-22.7-9.6-10.4-12.8-5.3-32.9 10.2-38.8 9.4-3.6 19.2-3.5 28.2 1.7 8 4.7 12.2 12.1 12.2 21.3 0.1 9.2-4.1 16.7-12.1 21.7-4.8 2.8-10.3 4.1-15.8 3.7z"/><path class="a" d="m878.7 53.7c-9.2 0.6-17-2.2-22.7-9.6-5.9-7.6-7.1-16.2-3.5-25 3.7-8.9 10.3-14.1 19.8-15.3 7.3-1 14.5-0.9 21.2 2.7 4.7 2.6 8.5 6.6 10.8 11.4 2.3 4.9 3 10.3 1.9 15.6-1 5.3-3.8 10.2-7.8 13.8-4.1 3.6-9.2 5.9-14.6 6.4-1.7 0.1-3.4 0-5.1 0z"/></g></svg>